Coordinates
version=1
nRows=65
nColumns=12
inDegrees=yes

Units are S.I. units (second, meters, Newtons, ...)
Angles are in degrees

endheader
time	SC_y	SC_z	SC_x	AC_y	AC_z	AC_x	GH_y	GH_z	GH_yy	EL_x	PS_y
       0.0              -28.28         -4.468          52.55          50.71          -11.8          4.825          99.51          24.84          14.18          92.62          144.1
   0.02469              -28.28         -4.467          52.56          50.71          -11.8          4.821          99.49          24.84          14.18          92.61          144.1
   0.04938              -28.28         -4.466          52.56          50.71          -11.8          4.817          99.47          24.83          14.17           92.6          144.1
   0.07407              -28.28         -4.464          52.57          50.71          -11.8          4.813          99.45          24.82          14.17          92.59          144.1
   0.09876              -28.28         -4.463          52.57          50.71          -11.8          4.809          99.42          24.82          14.17          92.58          144.1
    0.1235              -28.28         -4.462          52.58          50.71          -11.8          4.805           99.4          24.81          14.16          92.57          144.1
    0.1481              -28.28         -4.461          52.59          50.71          -11.8            4.8          99.38           24.8          14.16          92.56          144.1
    0.1728              -28.28         -4.459          52.59          50.72          -11.8          4.795          99.35          24.79          14.15          92.55          144.1
    0.1975              -28.28         -4.457           52.6          50.72          -11.8           4.79          99.32          24.78          14.14          92.54          144.1
    0.2222              -28.28         -4.456          52.61          50.72          -11.8          4.784          99.29          24.77          14.14          92.53          144.1
    0.2469              -28.28         -4.454          52.62          50.72          -11.8          4.778          99.25          24.76          14.13          92.51          144.0
    0.2716              -28.27         -4.452          52.62          50.72          -11.8          4.771          99.22          24.75          14.12           92.5          144.0
    0.2963              -28.27          -4.45          52.63          50.72          -11.8          4.764          99.18          24.74          14.12          92.48          144.0
     0.321              -28.27         -4.448          52.65          50.72          -11.8          4.756          99.14          24.73          14.11          92.46          144.0
    0.3457              -28.27         -4.445          52.66          50.73         -11.81          4.747          99.09          24.71           14.1          92.44          144.0
    0.3704              -28.27         -4.442          52.67          50.73         -11.81          4.738          99.04           24.7          14.09          92.42          144.0
    0.3951              -28.27         -4.439          52.68          50.73         -11.81          4.728          98.99          24.68          14.08           92.4          144.0
    0.4197              -28.27         -4.436           52.7          50.73         -11.81          4.717          98.93          24.66          14.07          92.37          144.0
    0.4444              -28.27         -4.433          52.71          50.73         -11.81          4.705          98.87          24.64          14.05          92.35          144.0
    0.4691              -28.27         -4.429          52.73          50.74         -11.81          4.692           98.8          24.62          14.04          92.32          144.0
    0.4938              -28.27         -4.425          52.75          50.74         -11.81          4.678          98.72          24.59          14.03          92.29          144.0
    0.5185              -28.27          -4.42          52.77          50.74         -11.82          4.662          98.64          24.57          14.01          92.25          143.9
    0.5432              -28.26         -4.415           52.8          50.75         -11.82          4.645          98.54          24.54          13.99          92.21          143.9
    0.5679              -28.26          -4.41          52.82          50.75         -11.82          4.626          98.44          24.51          13.97          92.17          143.9
    0.5926              -28.26         -4.403          52.85          50.76         -11.82          4.605          98.33          24.47          13.95          92.12          143.9
    0.6173              -28.26         -4.396          52.88          50.76         -11.82          4.581           98.2          24.43          13.92          92.07          143.9
     0.642              -28.26         -4.388          52.92          50.77         -11.83          4.554          98.06          24.38          13.89          92.01          143.8
    0.6667              -28.25          -4.38          52.96          50.77         -11.83          4.524          97.89          24.33          13.86          91.94          143.8
    0.6914              -28.25          -4.37          53.01          50.78         -11.83           4.49          97.71          24.27          13.83          91.86          143.8
     0.716              -28.25         -4.358          53.06          50.79         -11.84          4.451          97.51          24.21          13.78          91.77          143.7
    0.7407              -28.24         -4.346          53.12           50.8         -11.84          4.407          97.27          24.13          13.74          91.67          143.7
    0.7654              -28.24         -4.331          53.19          50.81         -11.85          4.357           97.0          24.05          13.68          91.56          143.7
    0.7901              -28.23         -4.314          53.27          50.82         -11.86          4.299          96.69          23.95          13.62          91.43          143.6
    0.8148              -28.23         -4.294          53.36          50.83         -11.86          4.231          96.32          23.83          13.55          91.27          143.5
    0.8395              -28.22         -4.271          53.47          50.85         -11.87          4.152           95.9           23.7          13.47           91.1          143.5
    0.8642              -28.21         -4.243          53.59          50.87         -11.88          4.058           95.4          23.54          13.37          90.88          143.4
    0.8889               -28.2         -4.211          53.75          50.89         -11.89          3.947           94.8          23.35          13.25          90.63          143.3
    0.9136              -28.19         -4.172          53.93          50.92         -11.91          3.814          94.09          23.12          13.11          90.33          143.1
    0.9383              -28.18         -4.125          54.15          50.96         -11.93          3.653          93.22          22.85          12.94          89.97          143.0
     0.963              -28.16         -4.067          54.41           51.0         -11.95          3.456          92.17          22.51          12.73          89.52          142.8
    0.9876              -28.14         -3.996          54.74          51.05         -11.98          3.214          90.87           22.1          12.47          88.97          142.6
     1.012              -28.11         -3.907          55.15          51.11         -12.01          2.911          89.25          21.59          12.15          88.29          142.3
     1.037              -28.08         -3.795          55.67          51.19         -12.05           2.53           87.2          20.94          11.74          87.43          141.9
     1.062              -28.04         -3.653          56.33          51.29         -12.11          2.045           84.6          20.11          11.23          86.33          141.5
     1.086              -27.98         -3.472          57.18          51.42         -12.18          1.424          81.27          19.06          10.57          84.93          140.9
     1.111              -27.91         -3.238          58.26          51.59         -12.26         0.6279           77.0           17.7          9.719          83.13          140.2
     1.136              -27.83          -2.94          59.64           51.8         -12.38        -0.3892          71.55          15.97          8.637          80.83          139.2
      1.16              -27.71         -2.566          61.38          52.07         -12.52         -1.668          64.69          13.79          7.277          77.93          138.0
     1.185              -27.58         -2.109           63.5           52.4         -12.69         -3.227          56.33          11.14           5.62          74.41          136.6
      1.21              -27.42          -1.58          65.96          52.78         -12.89         -5.033          46.65          8.069          3.699          70.32          134.9
     1.235              -27.25         -1.007          68.62          53.19         -13.11         -6.989          36.16           4.74          1.619           65.9          133.1
     1.259              -27.08        -0.4336          71.28           53.6         -13.33         -8.946          25.67          1.411         -0.461          61.47          131.2
     1.284              -26.92        0.09561          73.74          53.98         -13.53         -10.75          15.98         -1.663         -2.382          57.39          129.6
     1.309              -26.79         0.5522          75.86          54.31          -13.7         -12.31          7.623         -4.315         -4.039          53.86          128.1
     1.333              -26.68         0.9269           77.6          54.57         -13.84         -13.59         0.7648         -6.491         -5.399          50.97          126.9
     1.358              -26.59          1.225          78.98          54.79         -13.96         -14.61         -4.689         -8.222         -6.481          48.67          126.0
     1.383              -26.52          1.458          80.07          54.96         -14.05          -15.4         -8.959         -9.577         -7.327          46.87          125.2
     1.407              -26.46           1.64          80.91          55.09         -14.11         -16.02         -12.29         -10.63         -7.987          45.47          124.6
     1.432              -26.42          1.782          81.57          55.19         -14.17         -16.51         -14.89         -11.46         -8.503          44.37          124.2
     1.457              -26.39          1.894          82.09          55.27         -14.21         -16.89         -16.93         -12.11         -8.908          43.51          123.8
     1.481              -26.36          1.982           82.5          55.33         -14.24         -17.19         -18.55         -12.62          -9.23          42.82          123.6
     1.506              -26.34          2.053          82.83          55.38         -14.27         -17.44         -19.86         -13.03         -9.488          42.27          123.3
     1.531              -26.32          2.111           83.1          55.42         -14.29         -17.63         -20.91         -13.37         -9.697          41.83          123.1
     1.556              -26.31          2.158          83.32          55.46         -14.31         -17.79         -21.77         -13.64         -9.869          41.46          123.0
      1.58               -26.3          2.197           83.5          55.49         -14.33         -17.93         -22.49         -13.87         -10.01          41.16          122.9
